<svg width="164" height="46" viewBox="0 0 164 46" fill="none" xmlns="http://www.w3.org/2000/svg">
<path d="M50.8452 15.4545L48.4304 30H45.3551L47.7699 15.4545H50.8452ZM65.5415 15.4545L63.1268 30H60.4705L55.6765 20.8452H55.5629L54.0359 30H50.9606L53.3754 15.4545H56.0742L60.8469 24.6023H60.9677L62.4805 15.4545H65.5415ZM70.7102 15.4545L72.4006 26.5057H72.5355L77.8835 15.4545H81.2926L73.8636 30H69.9006L67.294 15.4545H70.7102ZM80.6286 30L83.0433 15.4545H92.8445L92.4183 17.9901H85.6925L85.1243 21.456H91.3459L90.9197 23.9915H84.6982L84.13 27.4645H90.8842L90.4581 30H80.6286ZM107.456 15.4545L105.041 30H102.385L97.5906 20.8452H97.4769L95.9499 30H92.8746L95.2894 15.4545H97.9883L102.761 24.6023H102.882L104.395 15.4545H107.456ZM109.016 17.9901L109.442 15.4545H121.388L120.962 17.9901H116.509L114.521 30H111.481L113.469 17.9901H109.016ZM134.822 22.9261C134.557 24.4792 134.044 25.7978 133.281 26.8821C132.524 27.9664 131.598 28.7902 130.504 29.3537C129.415 29.9171 128.241 30.1989 126.982 30.1989C125.661 30.1989 124.522 29.8982 123.565 29.2969C122.614 28.6955 121.925 27.8267 121.499 26.6903C121.072 25.5492 120.992 24.1738 121.257 22.5639C121.513 21.0062 122.022 19.6851 122.784 18.6009C123.546 17.5118 124.477 16.6832 125.575 16.1151C126.674 15.5421 127.855 15.2557 129.119 15.2557C130.431 15.2557 131.562 15.5587 132.514 16.1648C133.471 16.7708 134.16 17.6468 134.581 18.7926C135.007 19.9337 135.088 21.3116 134.822 22.9261ZM131.761 22.5639C131.927 21.5649 131.92 20.7268 131.74 20.0497C131.565 19.3679 131.243 18.8518 130.774 18.5014C130.305 18.151 129.714 17.9759 128.999 17.9759C128.222 17.9759 127.509 18.17 126.861 18.5582C126.217 18.9465 125.672 19.5099 125.227 20.2486C124.787 20.9825 124.482 21.875 124.311 22.9261C124.141 23.9299 124.145 24.768 124.325 25.4403C124.51 26.1127 124.839 26.6217 125.312 26.9673C125.791 27.3082 126.385 27.4787 127.095 27.4787C127.867 27.4787 128.572 27.2893 129.212 26.9105C129.856 26.527 130.398 25.9706 130.838 25.2415C131.278 24.5076 131.586 23.6151 131.761 22.5639ZM135.922 30L138.336 15.4545H144.075C145.173 15.4545 146.078 15.6487 146.788 16.0369C147.503 16.4252 148.005 16.9768 148.294 17.6918C148.587 18.402 148.656 19.2401 148.5 20.206C148.339 21.1719 147.991 22.0005 147.456 22.6918C146.925 23.383 146.234 23.9157 145.382 24.2898C144.534 24.6591 143.552 24.8438 142.434 24.8438H138.592L139.018 22.3722H142.356C142.943 22.3722 143.445 22.2917 143.862 22.1307C144.279 21.9697 144.608 21.7282 144.849 21.4062C145.095 21.0843 145.256 20.6842 145.332 20.206C145.413 19.7183 145.384 19.3111 145.247 18.9844C145.109 18.6529 144.861 18.402 144.501 18.2315C144.141 18.0563 143.668 17.9688 143.081 17.9688H141.007L138.997 30H135.922ZM144.87 23.3807L147.392 30H143.997L141.554 23.3807H144.87ZM150.121 15.4545H153.565L155.845 21.7188H156.001L160.341 15.4545H163.786L156.925 24.858L156.065 30H153.011L153.871 24.858L150.121 15.4545Z" fill="#0B64A8"/>
<path d="M14.7698 6.38536L16.4611 0.0823555H30.6098L28.9928 6.17911L28.1678 3.56386H24.8596L19.3156 24.4941L13.1198 30.6239L20.3468 3.56386H17.8058L14.7698 6.38536Z" fill="#FC4F04"/>
<path d="M38.8127 -3.8147e-06L33.1614 20.9385H44.0432L39.4974 24.4117H27.8319L33.5409 2.82975L31.2722 -3.8147e-06H38.8127Z" fill="black"/>
<path d="M0.564898 25.7717C0.225348 29.9619 1.27358 34.845 4.64778 37.209C7.35945 39.1097 10.5219 39.3923 13.5471 39.1476C16.8775 38.8787 20.1559 37.9747 23.3644 36.8307C25.7188 35.992 28.0401 35.0075 30.3743 34.0838C33.6787 32.7742 37.1831 31.8276 40.5868 32.6222C43.1483 33.2208 45.5594 34.8222 47.4287 37.1467C44.9998 35.4785 42.1864 34.8738 39.4546 35.0425C38.2514 35.1169 37.0648 35.4269 35.8982 35.8082C29.2468 37.9884 23.0663 42.5539 16.2398 43.4989C14.0937 43.7967 11.8789 43.9 9.73038 43.5551C6.23432 42.9945 3.32389 40.8204 1.52913 36.8687C0.0194888 33.5444 -0.506991 29.3664 0.564898 25.7717Z" fill="#FC4F04"/>
<mask id="mask0_900_222" style="mask-type:luminance" maskUnits="userSpaceOnUse" x="16" y="36" width="32" height="10">
<path d="M16.9769 36.6797H48V45.7717H16.9769V36.6797Z" fill="white"/>
</mask>
<g mask="url(#mask0_900_222)">
<path d="M29.4431 41.2724C32.5791 39.6245 35.5708 37.6209 38.9212 36.9633C42.0524 36.347 45.4708 36.8805 48.0119 39.2597C45.3873 37.9735 42.7532 37.9229 40.137 38.5882C36.9689 39.3946 33.7245 41.2801 30.6839 42.6812C28.6124 43.6363 26.6779 44.5882 24.5146 45.1094C22.0581 45.6996 19.5336 45.9756 17.052 45.6015C21.6457 45.3409 25.4979 43.3465 29.4431 41.2724Z" fill="#070707"/>
</g>
<mask id="mask1_900_222" style="mask-type:luminance" maskUnits="userSpaceOnUse" x="3" y="22" width="25" height="15">
<path d="M3.06972 22H27.48V36.856H3.06972V22Z" fill="white"/>
</mask>
<g mask="url(#mask1_900_222)">
<path d="M4.1472 24.7256C4.51908 23.9576 5.02326 23.3122 5.66927 22.8861C6.64426 22.2407 7.90053 22.0138 8.93511 22.5595C8.63475 22.4001 8.03045 22.5427 7.71102 22.5841C6.5489 22.7328 5.60372 23.7093 5.08166 25.0383C4.2664 27.1186 4.69191 30.0465 5.77178 31.8478C6.10075 32.3966 6.71935 32.9469 7.17704 33.3117C10.0519 35.6051 13.6312 35.1697 16.8089 34.3971C17.7159 34.1763 18.8327 34.0261 19.7326 33.7578C22.3548 32.976 24.7649 32.1022 27.3787 31.2775C27.3787 31.2775 26.4395 31.7313 26.2405 31.8263C25.8447 32.0179 25.449 32.208 25.0521 32.3996C21.8888 33.9249 18.704 35.4364 15.3655 36.2014C12.7754 36.7946 10.0686 37.115 7.55607 35.8856C5.88263 35.0685 4.38201 33.531 3.73123 31.3863C3.11739 29.3705 3.21394 26.6556 4.1472 24.7256Z" fill="#070707"/>
</g>
<path d="M8.90404 31.0125C7.51825 29.4245 7.28527 26.7313 8.38341 24.9961C8.76842 24.3883 9.26498 23.9792 9.80749 23.7717C9.01561 23.8791 8.26966 24.3633 7.73153 25.214C6.56777 27.0521 6.81496 29.9057 8.28278 31.5879C9.75171 33.27 11.8845 33.1449 13.0472 31.3053C13.1085 31.2097 13.1642 31.1111 13.2178 31.011C12.0902 32.4886 10.2166 32.5151 8.90404 31.0125Z" fill="#FC4F04"/>
</svg>
