<svg width="134" height="134" viewBox="0 0 134 134" fill="none" xmlns="http://www.w3.org/2000/svg">
<rect x="0.276611" y="0.472168" width="133.416" height="133.416" rx="25.1729" fill="#293FCC" fill-opacity="0.1"/>
<path d="M90.3522 47.2048C90.2518 46.2987 89.5466 45.5935 88.6406 45.5935H80.2833C80.2833 38.1423 74.1412 32 66.6897 32C59.2383 32 53.0962 38.0418 53.0962 45.5935H44.7389C43.8328 45.5935 43.1277 46.2987 43.0273 47.2048L39 92.1126V92.3142C39 97.3487 43.6321 101.376 49.2706 101.376H84.1094C89.7479 101.376 94.38 97.3487 94.38 92.3142V92.1126L90.3522 47.2048ZM66.69 35.5245C72.2281 35.5245 76.759 40.0554 76.759 45.5935H56.621C56.621 40.0561 61.1519 35.5245 66.69 35.5245ZM84.1092 97.9525H49.2704C45.545 97.9525 42.5242 95.4352 42.4238 92.4143L46.2502 49.1175H53.0968V55.1593C53.0968 56.0653 53.9024 56.8709 54.8085 56.8709C55.7145 56.8709 56.5201 56.0653 56.5201 55.1593V49.1175H76.7588V55.1593C76.7588 56.0653 77.5645 56.8709 78.4705 56.8709C79.3765 56.8709 80.1821 56.0653 80.1821 55.1593V49.1175H87.0287L90.8551 92.4143C90.8558 95.4352 87.8357 97.9525 84.1096 97.9525H84.1092Z" fill="#293FCC"/>
</svg>
