<svg width="134" height="135" viewBox="0 0 134 135" fill="none" xmlns="http://www.w3.org/2000/svg">
<rect x="0.543579" y="0.845825" width="133.416" height="133.416" rx="25.1729" fill="#293FCC" fill-opacity="0.1"/>
<path d="M85.5781 41.5L85.8311 41.5078C87.0076 41.581 88.0978 42.162 88.8584 43.085L89.0166 43.2881L89.0195 43.292L94.6934 51.209L95.2607 52H94.8525L94.8535 90.6895C94.8535 92.8065 93.118 94.6208 90.9229 94.6211H42.4307C40.241 94.621 38.5 92.8785 38.5 90.6895V51.8965C38.5 51.6918 38.5746 51.5037 38.6338 51.3789L38.7021 51.2422L38.7256 51.21L44.3994 43.293C45.1602 42.1631 46.5036 41.5 47.8408 41.5H85.5781ZM40.8193 90.6895C40.8193 91.5453 41.5296 92.3007 42.4307 92.3008H90.9883C91.8442 92.3008 92.5996 91.5906 92.5996 90.6895V53.0557H75.126L75.127 63.8379C75.127 64.4809 74.7668 65.0932 74.2441 65.4414L74.2061 65.4668L74.1641 65.4854C73.6299 65.7141 72.9926 65.8303 72.3438 65.4648L66.709 62.4268L61.0752 65.4658C60.7929 65.6412 60.4498 65.7236 60.1777 65.7236C59.8403 65.7236 59.4733 65.6406 59.1748 65.4414V65.4404C58.6634 65.0997 58.292 64.5592 58.292 63.8379V53.0557H40.8193V90.6895ZM60.6123 52.0977V63.1953L66.4688 59.9688L66.707 59.8369L66.9473 59.9668L72.8076 63.1357V52.0322L70.4873 43.8193H62.9951L60.6123 52.0977ZM74.873 50.7363H91.5342L87.1631 44.6162C86.7872 44.1334 86.2027 43.8195 85.5791 43.8193H72.9131L74.873 50.7363ZM47.8408 43.8193C47.1919 43.8194 46.6289 44.0854 46.2715 44.5957L46.2686 44.5996L41.8857 50.7363H58.6133L60.5732 43.8193H47.8408Z" fill="#293FCC" stroke="#293FCC"/>
<path d="M72.0879 51.1368V52.6554H61.332V51.1368H72.0879Z" fill="#293FCC" stroke="#293FCC" stroke-width="0.2"/>
</svg>
