<svg width="134" height="135" viewBox="0 0 134 135" fill="none" xmlns="http://www.w3.org/2000/svg">
<rect x="0.543579" y="0.972168" width="133.416" height="133.416" rx="25.1729" fill="#293FCC" fill-opacity="0.1"/>
<path fill-rule="evenodd" clip-rule="evenodd" d="M55.3173 58.2952C55.3173 56.8018 55.6115 55.3229 56.183 53.9431C56.7545 52.5633 57.5922 51.3096 58.6483 50.2536C59.7043 49.1975 60.958 48.3598 62.3378 47.7883C63.7176 47.2167 65.1965 46.9226 66.69 46.9226C68.1835 46.9226 69.6623 47.2167 71.0421 47.7883C72.4219 48.3598 73.6756 49.1975 74.7317 50.2536C75.7877 51.3096 76.6254 52.5633 77.197 53.9431C77.7685 55.3229 78.0627 56.8018 78.0627 58.2952V82.0295C78.0627 83.8492 77.1726 85.4552 75.8 86.4441C74.8032 85.2574 73.3079 84.5019 71.6346 84.5019H61.7453C60.3028 84.5019 58.9193 85.0749 57.8993 86.0949C56.8793 87.115 56.3062 88.4984 56.3062 89.941C56.3062 91.3835 56.8793 92.767 57.8993 93.787C58.9193 94.807 60.3028 95.3801 61.7453 95.3801H71.6346C74.0872 95.3801 76.1639 93.7543 76.8403 91.5193C78.6745 90.7015 80.2328 89.3703 81.3271 87.6864C82.4214 86.0024 83.005 84.0378 83.0073 82.0295V78.0738H87.4575C91.0097 78.0738 93.8855 75.1941 93.8855 71.6458V63.7344C93.8855 60.1861 91.0097 57.3063 87.4575 57.3063H84.9575C84.7002 52.6354 82.6634 48.2405 79.2659 45.0249C75.8683 41.8093 71.368 40.0173 66.69 40.0173C62.012 40.0173 57.5117 41.8093 54.1141 45.0249C50.7165 48.2405 48.6798 52.6354 48.4225 57.3063H45.9225C42.3742 57.3063 39.4944 60.1861 39.4944 63.7344V71.6458C39.4944 75.1941 42.3742 78.0738 45.9225 78.0738H52.845C54.2097 78.0738 55.3173 76.9662 55.3173 75.6015V58.2952ZM44.4391 63.7344C44.4391 62.9155 45.1036 62.251 45.9225 62.251H50.3727V73.1292H45.9225C45.5291 73.1292 45.1518 72.9729 44.8736 72.6947C44.5954 72.4165 44.4391 72.0392 44.4391 71.6458V63.7344ZM83.0073 73.1292V62.251H87.4575C88.2763 62.251 88.9409 62.9155 88.9409 63.7344V71.6458C88.9409 72.0392 88.7846 72.4165 88.5064 72.6947C88.2282 72.9729 87.8509 73.1292 87.4575 73.1292H83.0073Z" fill="#293FCC"/>
</svg>
